<mxfile host="app.diagrams.net" agent="Mozilla/5.0 (Windows NT 10.0; Win64; x64) AppleWebKit/537.36 (KHTML, like Gecko) Chrome/133.0.0.0 Safari/537.36 Edg/133.0.0.0" version="26.0.16">
  <diagram name="Página-1" id="i0s8jnzoWyvayo1svNW6">
    <mxGraphModel dx="1425" dy="769" grid="1" gridSize="10" guides="1" tooltips="1" connect="1" arrows="1" fold="1" page="1" pageScale="1" pageWidth="3300" pageHeight="2339" math="0" shadow="0">
      <root>
        <mxCell id="0" />
        <mxCell id="1" parent="0" />
        <mxCell id="Ox2h51zCtptBNC5_lXzr-4" style="edgeStyle=orthogonalEdgeStyle;rounded=0;orthogonalLoop=1;jettySize=auto;html=1;exitX=1;exitY=0.5;exitDx=0;exitDy=0;entryX=0;entryY=0.5;entryDx=0;entryDy=0;" edge="1" parent="1" source="Ox2h51zCtptBNC5_lXzr-5" target="Ox2h51zCtptBNC5_lXzr-2">
          <mxGeometry relative="1" as="geometry" />
        </mxCell>
        <mxCell id="Ox2h51zCtptBNC5_lXzr-1" value="Supplier (internal or external)" style="rounded=1;whiteSpace=wrap;html=1;" vertex="1" parent="1">
          <mxGeometry x="450" y="530" width="180" height="120" as="geometry" />
        </mxCell>
        <mxCell id="Ox2h51zCtptBNC5_lXzr-7" style="edgeStyle=orthogonalEdgeStyle;rounded=0;orthogonalLoop=1;jettySize=auto;html=1;" edge="1" parent="1" source="Ox2h51zCtptBNC5_lXzr-8" target="Ox2h51zCtptBNC5_lXzr-3">
          <mxGeometry relative="1" as="geometry" />
        </mxCell>
        <mxCell id="Ox2h51zCtptBNC5_lXzr-2" value="&lt;b&gt;Vilamoura Collective SPV&lt;/b&gt;&lt;div&gt;&lt;br&gt;&lt;/div&gt;&lt;div&gt;&lt;font style=&quot;font-size: 8px;&quot;&gt;(Will buy at a net price &lt;span style=&quot;background-color: transparent; color: light-dark(rgb(0, 0, 0), rgb(255, 255, 255));&quot;&gt;agreed&lt;/span&gt;&lt;span style=&quot;background-color: transparent; color: light-dark(rgb(0, 0, 0), rgb(255, 255, 255));&quot;&gt;&amp;nbsp;on the SPA and insert a commission)&lt;/span&gt;&lt;/font&gt;&lt;/div&gt;&lt;div&gt;&lt;span style=&quot;background-color: transparent; color: light-dark(rgb(0, 0, 0), rgb(255, 255, 255));&quot;&gt;&lt;font style=&quot;font-size: 8px;&quot;&gt;Ex: 80€ * 20% commission = 96€&lt;/font&gt;&lt;/span&gt;&lt;/div&gt;&lt;div&gt;&lt;span style=&quot;background-color: transparent; color: light-dark(rgb(0, 0, 0), rgb(255, 255, 255));&quot;&gt;&lt;font style=&quot;font-size: 8px;&quot;&gt;&lt;br&gt;&lt;/font&gt;&lt;/span&gt;&lt;/div&gt;" style="rounded=1;whiteSpace=wrap;html=1;" vertex="1" parent="1">
          <mxGeometry x="790" y="530" width="180" height="120" as="geometry" />
        </mxCell>
        <mxCell id="Ox2h51zCtptBNC5_lXzr-3" value="Final Client (VClub Member)" style="ellipse;whiteSpace=wrap;html=1;aspect=fixed;" vertex="1" parent="1">
          <mxGeometry x="1150" y="522.5" width="135" height="135" as="geometry" />
        </mxCell>
        <mxCell id="Ox2h51zCtptBNC5_lXzr-6" value="" style="edgeStyle=orthogonalEdgeStyle;rounded=0;orthogonalLoop=1;jettySize=auto;html=1;exitX=1;exitY=0.5;exitDx=0;exitDy=0;entryX=0;entryY=0.5;entryDx=0;entryDy=0;" edge="1" parent="1" source="Ox2h51zCtptBNC5_lXzr-1" target="Ox2h51zCtptBNC5_lXzr-5">
          <mxGeometry relative="1" as="geometry">
            <mxPoint x="630" y="590" as="sourcePoint" />
            <mxPoint x="790" y="590" as="targetPoint" />
          </mxGeometry>
        </mxCell>
        <mxCell id="Ox2h51zCtptBNC5_lXzr-5" value="Net Price&lt;div&gt;Ex: 80€&lt;/div&gt;" style="shape=process;whiteSpace=wrap;html=1;backgroundOutline=1;fontSize=8;" vertex="1" parent="1">
          <mxGeometry x="670" y="575" width="60" height="30" as="geometry" />
        </mxCell>
        <mxCell id="Ox2h51zCtptBNC5_lXzr-9" value="" style="edgeStyle=orthogonalEdgeStyle;rounded=0;orthogonalLoop=1;jettySize=auto;html=1;" edge="1" parent="1" source="Ox2h51zCtptBNC5_lXzr-2" target="Ox2h51zCtptBNC5_lXzr-8">
          <mxGeometry relative="1" as="geometry">
            <mxPoint x="970" y="590" as="sourcePoint" />
            <mxPoint x="1150" y="590" as="targetPoint" />
          </mxGeometry>
        </mxCell>
        <mxCell id="Ox2h51zCtptBNC5_lXzr-8" value="PVP Price&lt;div&gt;Ex: 96€&lt;/div&gt;" style="shape=process;whiteSpace=wrap;html=1;backgroundOutline=1;fontSize=8;" vertex="1" parent="1">
          <mxGeometry x="1030" y="575" width="60" height="30" as="geometry" />
        </mxCell>
        <mxCell id="Ox2h51zCtptBNC5_lXzr-11" style="edgeStyle=orthogonalEdgeStyle;rounded=0;orthogonalLoop=1;jettySize=auto;html=1;exitX=0.5;exitY=0;exitDx=0;exitDy=0;entryX=0.466;entryY=0.001;entryDx=0;entryDy=0;entryPerimeter=0;" edge="1" parent="1" source="Ox2h51zCtptBNC5_lXzr-3" target="Ox2h51zCtptBNC5_lXzr-2">
          <mxGeometry relative="1" as="geometry">
            <Array as="points">
              <mxPoint x="1217" y="460" />
              <mxPoint x="874" y="460" />
            </Array>
          </mxGeometry>
        </mxCell>
        <mxCell id="Ox2h51zCtptBNC5_lXzr-12" value="Cash Inflow:&lt;div&gt;96€&lt;/div&gt;" style="ellipse;whiteSpace=wrap;html=1;aspect=fixed;fontSize=8;fillColor=#d5e8d4;strokeColor=#82b366;" vertex="1" parent="1">
          <mxGeometry x="1010" y="420" width="80" height="80" as="geometry" />
        </mxCell>
        <mxCell id="Ox2h51zCtptBNC5_lXzr-13" style="edgeStyle=orthogonalEdgeStyle;rounded=0;orthogonalLoop=1;jettySize=auto;html=1;entryX=0.429;entryY=1.031;entryDx=0;entryDy=0;entryPerimeter=0;" edge="1" parent="1" source="Ox2h51zCtptBNC5_lXzr-2" target="Ox2h51zCtptBNC5_lXzr-1">
          <mxGeometry relative="1" as="geometry">
            <Array as="points">
              <mxPoint x="880" y="750" />
              <mxPoint x="527" y="750" />
            </Array>
          </mxGeometry>
        </mxCell>
        <mxCell id="Ox2h51zCtptBNC5_lXzr-14" value="Cash outlow:&lt;div&gt;80€&lt;/div&gt;" style="ellipse;whiteSpace=wrap;html=1;aspect=fixed;fontSize=8;fillColor=#f8cecc;strokeColor=#b85450;" vertex="1" parent="1">
          <mxGeometry x="660" y="710" width="80" height="80" as="geometry" />
        </mxCell>
        <mxCell id="Ox2h51zCtptBNC5_lXzr-15" value="Profit: 16€&amp;nbsp;" style="shape=hexagon;perimeter=hexagonPerimeter2;whiteSpace=wrap;html=1;fixedSize=1;fillColor=#fff2cc;strokeColor=#d6b656;fontSize=8;" vertex="1" parent="1">
          <mxGeometry x="835" y="623" width="90" height="20" as="geometry" />
        </mxCell>
      </root>
    </mxGraphModel>
  </diagram>
</mxfile>
